<svg xmlns="http://www.w3.org/2000/svg" width="1277" height="741" version="1"><g fill="none" fill-rule="evenodd" stroke="#147282" stroke-opacity="0.15"><path d="M694 38c5-3 12-13 8-15l-5 9-2 1-1 5z"/><path d="M729 2c-4 2-9 14-13 18-12 12-11 33-29 43-1 2-2 3-4 3-2 3-7 4-7 0 0-2 6-5 7-6 3-4 8-15 5-16-1 2-3 4-6 5 0 0-6-6-6-8 1-5 7-5 10-9 6-9-8-7-12-16-3-6 1-6-5-11-3-3-5-3-12-3"/><path d="M677 54c-6-1-2-3 2-2l-2 2zM652 86c-1-4 6-10 10-13 3-3 17-8 9-2l-3 3-3 2-2 1-3 2-4 3-4 4zM292 206c5-1 9-10 1-10l-2 1c-4 2-6 6-3 9h4zM350 327c4-1 8-3 11-6h-9c-1 1-2 2-3 1-2 2-2 4-1 5h2zM543 536v-3l-2 3h2zM730 669c0-1 0-2-1-1l-1 1h2z"/><path d="M573 740c12 0 11 0 17-8l10-15c3-4 7-14 12-9 6-11 37-86 14-86l-2 1h-6c-2 4-1 11-1 14l-1 14c2 4 7 17-3 10-2 3-5 4-9 3-6-2-3-3-5-9-2-8-3-18-2-25 2-8 1-12 6-18 4-6 10-10 15-15 16-18 39-39 57-56 8-7 32-25 20-34 3 0 5 1 7 3 6-2 14-16 20-14l2 1 2 1c5 0 10-3 15-1 10 0 24-3 32-1l4 1 2 1 2 1 2 1 6 7c-4 4-4 10-10 11-2 4-3 7-7 9l-1 1c3 2 2 4-2 5 0 1-1 2-3 2l-4 1-2 1c-1 3-3 7-6 9l-7 1c1 2 1 4-1 6 1 2 0 3-2 3l-2 1c1 11-5 26-6 37-2 10-3 25-10 33l-3 12 3 13c0 6-1 5 2 11 3 4 6 7 7 11 3 0 5 1 5 4h6l5 4 2 1 4 2c-1-4 1-3 4-1 6 0 7 5 11 8 2 0 3 1 3 2 7-3 9 8 11 12 3 2 3 4-1 5 2 5 8 10 3 13-2 4-15 0-21-2l-8-6c-5-2-9-1-13-3l-3 3c-3 1-6 0-9-2l-3 1h-8l-3 1-2 1h-7l-5 1c-1 2-3 2-5 2l-4 2-6 1c0 2-1 3-3 4l-3 1-4 2c-1 2-2 4-5 5l-3 5M4 219c3 0 5 2 7 5 1-1 3-1 4 1 1-1 1 0 2 1l5 5 2 1 2 1 2 1 2 1 3 1 2 1 3 1 3 1 4 1 5 1 16-5c7 0 6 3 10 9l2 1 3 1 3 1c3 1 4 3 4 6l2 1c3 1 5 4 6 6l7 1 5 5 4 1 10 1c8-1 12-4 19-8l10-4c4-1 3-5 7-5l2 1 6 1 3 1c6-1 13-2 18-1 6 0 9-4 14-4 21 4 27-47 42-38 14-1 27-10 39-17 12-8 34-12 47-11 6 1 14-1 19-2 5-2 7-8 13-8 7 0 6 0 8 8l5 17 17 73c1 9 12 34 1 39l-2 1-2 1-2 1-3 2h-2c-1 2-2 2-3 2-1 2-2 2-3 2-1 1-1 2-2 1-1 2-2 2-3 2-1 1-1 2-2 1-1 1-1 2-2 1-1 1-2 2-3 1-1 1-2 2-3 1-1 2-2 3-4 3-1 1-2 2-3 1l-2 1c-2 1-4 2-6 1-2 1-4 2-7 1-2 1-4 2-7 1l-2 1c-2 1-4 1-7-1-1 1-3 2-5 1l-2 1c-1 1-4 2-6 1-2 1-5 2-7 1-5 3-9 0-10-3-1 1-2 2-3 1-6 4-21-1-28-2-1 1-2 2-4 1l-2 1c-3 2-7 1-11 1-1 1-3 2-5 1-1 1-2 2-4 1-1 1-3 2-5 1-1 1-3 2-6 1-8 3-12-8-19-11-3 4-7 4-11 3l-2 1-3 2c-8 4-19-4-28-5l-2 1-2 1-2 1c-1 1-2 2-4 1 0 1-1 2-3 1-3 3-5 6-9 8l-2 1c-8 5-12-8-23-7-1 1-2 2-3 1l-3 2c-7 9-15-18-25-19-2 2-4 2-7 1-1 2-3 2-5 1 0 1-1 2-2 1-3 4-8 4-13 3 0 1-1 2-3 1 0 1-1 2-2 1 0 2-1 2-3 2l-6 6-2 1c-1 1-2 2-3 1-1 1-2 2-3 1l-2 1-2 1c-3 1-7 2-10 1-1 1-2 2-3 1l-2 1-2 1c-3 5-8 7-13 3M851 2c-6 1-9 11-18 9l-4 3-3 2c-13 12-26 42-9 56l2 1 3 3 3 2 2 1c4 2 13 12 7 14l-2 1-3 2c-2 3-5 5-8 5l-3 2-2 1-2 1-2 1c-7 7-13 21-14 31-2 12 2 24-12 31l-2 1-2 1-2 1-2 1-2 1c0 1-1 2-3 2l-3 1-3 1-4 1-3 1-4 1-2 1h-6l-9 1-4 1-3 1c-2 5 4 18-6 18l-4 1c-4 4-3 10 2 14 4 2 2 7 5 11 6 3 23 21 13 25-1 2-2 4-4 4h-11l-10 9-2 1-5 4c-8 9-18 19-24 30l-9 18-9 17c-2 10 3 16 8 23l9 12 3 1c12-3 21 32 10 36h-2c0 1-1 2-2 1 0 1-1 2-2 1 0 1-1 2-2 1 0 1-1 2-2 1 0 1-1 2-2 1 0 1-1 2-2 1 0 1-1 2-3 1 0 1-1 2-2 1-6 7-7 14-1 21l2 1 2 1c8 1 5 14 10 19 7 3 13 17 12 23-1 4-13 22-16 22 0 1-1 2-2 1-4 7-11 13-17 18-12 12-26 32-41 41-4 7-17 19-24 23-1 2-2 2-3 2l-6 6c-5 2-4-3-7-6l-9-6c-2-3-1-9-4-12-3-5-2-3-10-4-10-2-11-8-15-16-5-9-8-9-16-15-6-4-6-22-14-21-1 1-2 2-4 1l-2 1c-1 1-2 2-3 1-3 1-6 2-10 1 0 1-1 2-3 1l-2 1c-10 4-19-15-23-22-3-5-5-10-3-16 1-6 10-7 1-12l-2 1c-6 2-4-3-2-6 2-2 7-2 9-4 4-3 10-10 12-15 2-4 1-6 1-10l-3-4 3-4c1-8 0-16-2-23-1-6-9-18-2-21-4-6-9-7-12-15-3-6-8-13-9-19-4-15-1-31-6-46-4-11-11-10-22-10l-2 1c-1 2-3 3-5 3l-2 1-3 1-5 1c-6 2-11-6-12-9v-19c-2-12-12-28-5-40 4-4 9-6 13-11 5-6 4-14 9-20 5-5 10-4 12-12 2-7-4-11-7-17-6-10-9-20-16-31s-3-22-8-35c-3-10-13-23-9-34 3-11 17-17 25-21 21-9 47-27 52-50M456 547l-9-4c-3 4-8-1-13 0l-8 1-2 2-1-9c-1-6 8-5 13-8 7-4 3-8 11-3 4 2 14 17 11 19l-2 2zM407 548l-4-5c-9 1-5-4-7-9-1-2-6-2-7-5s2-6 2-9c-2-14-9-18-18-28 3-2 6-3 9-2l4 3h2l3 1 4 1c10 4 6 30 10 38 5 0 6 3 3 7 1 2 1 5-1 8zM612 613h-1 1z"/><path d="M632 647c-6-1-4-4-1-7 3 2 2 4 1 7zM622 655c-4-2-7-6-3-10 3 3 5 6 3 10zM623 666c0-2-2-3 0-5 2 2 0 3 0 5zM3 123c5 0 19-2 23-4 5-4 2-17 11-12 1-1 3 0 4 1 2-1 5 0 7 1l2 1 2 1 2 1 2 1 2 1 2 1c5 3 6 10 9 15 13-5 12 9 15 18l2 1h5l6 1c7 2 15 17 7 21-3 3-2 5 0 8 2-1 4 0 6-3 3 3 4 6 5 9l2 1 3 1 2 1c4 2 6 7 8 11h3c6-7 17-8 24-15 8-8 9-15 12-26 3-9 10-15 17-22 7-6 9-16 14-24s18-19 26-15h6l3 1c7 0 7-4 12-1 4 2 6 7 7 10 3-3 2-7 4-10 7 5 10 14 15 21 7-4 2-28 1-33-2-9 1-28-6-33-6 2-6-6 0-2 1-2 0-4-2-4l-2 1-10-5h-9c-2 6 3 12 2 19-1 10-3 1-7-3-7-6-9-3-12-12-2-5-1-15-8-13l-2 1c-7 3-18-9-23-14-6-6-5-26-15-16M826 234c3-3 4-7 0-8-1 1-1 2-2 1-1 2-2 2-3 2-1 3 0 4 2 5h3zM765 382c6-4 10-2 14-8 4-5 6-13 8-19 3-7 18-38 10-40-1 2-2 2-4 1 0 1-1 2-2 1-3 2-6 2-10 1-4 1-10-1-16-1-2 2-4 2-7 1l-1 1-2 1-2 1c-6 5-7 13-12 15-1 4 3 9 3 14 0 6-4 10-2 15 8 0 8 9 12 14l2 1c1-1 2 0 2 1l2 1h5zM484 687c14-4 34-5 42-19l-19-9c-6-4-8-9-14-14l-7-7c-2-4 2-6 0-10-2-7-10-10-18-10l-2 1h-10l-4 3c-4 0-5-7-12-7l-4 1c-2 1-4 2-7 1 3 12-13-1-14-5 1 3 0 6-2 9-1 30 21 53 47 63l4 1 4 1 5 1h11zM507 704c9-9 31-25 31-33-1 1-3 3-5 3-2 3-4 4-6 5 0 2-2 4-4 4-4 5-9 11-15 14l-5 6 2 1h2zM501 705l1-1h-1l-1 1h1zM388 740c1-9 6-17 8-26 1-9 3-17 3-26 2-17 4-35 4-52 1-6 4-25 0-28-4 1-6 0-10-1l-2 1c-1 1-3 2-4 1l-2 1c-3 3-7 8-8 12l1 8-2 5c1 10 7 20-1 30 2 9-7 1-11 1-5 1-7-4-12-4-8-1-18-8-29-6-3 1-6 0-9-1l-3 4-4 1-3 1c-4 1-8-1-11-2l-2 1c-4 3-8-1-10-4-10 5-14-5-12-10 2-6 5-13 10-17 6-6 11-8 12-18 0-9-5-11-9-18-2-4-1-4-2-11 0-5-3-8-1-13-3-9 2-14 6-21 0-1 4-5 3-9-1-3-6-4-9-6l-7-1c-2 2-4 1-5-2-5 9-11-1-18-4-2 1-5 0-8-2-1 1-3 2-5 1 0 2-1 3-3 3l-3 1-3 1c-1 2-2 2-4 2l-2 1-2 1-4 1-2 1-3 1-2 1-3 1-3 1-2 1-3 1-4 1-2 1-3 1-3 1c-3 1-5 1-7-1l-2 1h-7c-1 2-3 4-5 4-4 2-7-1-10-3l-3 1c-10 6-10-8-17-11 6-2 1-4 3-8 2-2 4-2 6-5l5-5v-9c3-8 15-13 23-19 13-11 35-24 44-41 5-11-7-24-19-23l-10-3h-9c-3 2-13 2-16-1-4-3 0-9-6-9-4 3-9 0-15 0-2 1-5 2-8 1l-2 1c0 2-1 2-2 2 1 4 1 8-2 9l-3 2c-17 8-9-13-19-14-3 1-7 2-10 1-2 1-4 2-6 1l-2 1c-3 1-6 2-9 1l-2 1c-1 4-3 6-7 5-1 1-2 2-3 1l-2 1-2 1c-1 1-3 2-5 1 0 1-1 2-3 1l-2 1c-6 6-7 16-14 19l-2 1-4 2-2 1-9 1-2 1-2 1-3 2-2 1-3 1-2 1-3 2"/><path d="M447 740c8-6 59-41 55-49l-5 1-4 1c-17 6-39-1-53-10-6-3-12-8-16-12s-8-16-14-17c-7 28-2 59-17 86M1273 409c-1 1-2 2-3 1-1 1-1 2-2 1-5 3-13-1-17-4-1 1-1 2-2 1-1 2-2 3-4 2-5 2-12-1-18-1-1 2-4 2-6 1h-6c-6 1-30-9-12-14-6-5 0-9 2-13 4-6 4-11 4-17-1-10 0-6-6-13-4-5-3-12-11-11-6 1-9-14-13-19l-16-18c-8-12-24-24-25-39 0-5 0-32 8-19l2 1c3 0 5 0 7 2l2 1 5 1 4 2 3 1c6 3 4 9 9 13l2 1c4-4 8-2 11 3l3 2 6 6 2 1c1 1 3 3 3 6 2 0 3 1 3 2 3-1 5 0 6 1l2 1c2-1 4 0 5 1l2 1c1-1 3 0 3 1l2 1 2 1c2-1 3 0 4 1 1-1 2 0 3 1l2 1c3-2 6-2 8 0l3 2 2 1c6-1 10-5 15-4M1164 740c-9-5-8-21-12-30-2-4-14-27-5-28l3 2 2 1 2 1 6-3c-2-5 1-4 2-1 4-2 3-4 6-6 3 1 5 2 7 5l7 1 2 1 3-3 2 3 2 1 4 3 6 11c2 1 6 8 7 11l2 12c7-1 8 6 12 10 4-1 7 0 10 1 3-2 5-12 10-7l2 1c6-4 17-5 22-13 3-5-1-9 1-14 1-4 7-6 9-10M1006 7l-3 2c-1 3-4 6-7 8-3 3-6 7-10 8l-2 1c1 6 0 11-1 18-1 5 1 13-1 17-5 10-13-11-23-10 0 1-1 2-2 1 0 1-1 2-3 1 0 2-1 2-3 2-1 2-2 3-4 3-1 2-2 3-4 3-1 2-3 4-6 5-6 12-11 22-9 37 1 12 2 27-9 35l-4 2c-1 2-2 2-3 2-1 1-1 2-2 1-1 2-2 3-4 2-1 1-2 2-3 1-2 3-4 6-7 7-5 7-9 18-12 26-5 15-9 7-22 5-8 9-35 56-26 66l2 1 6 1c1 1 3 2 3 4l7 1 5 4c10 4 0 17-5 20-1 2-3 4-6 5l-2 1-2 2-4 2c-5 4-6 11-12 13l-2 1-2 1-6 8-4 1c-9 11-13 28-19 42-5 10-15 26-14 38l2 1 2 1 2 1c1-1 2 0 2 1 5-3 9 0 11 5 1-1 2 0 3 1 1-1 2 0 3 1 1-1 1 0 2 1 2-1 5-1 7 1l4 2 2 1 2 1 9 1 2 1c5 1 10-2 15 0 11 1 16-11 26-6 2-1 4-1 6 1h2l3 2c9 1 21-4 29-1l3 1 4 1 2 1 2 1 2 1c11 4 12 22 14 31 2 8 7 30-2 34-3 4-5 8-9 11l-2 1-4 2-5 1c-7 7 1 23-7 26l-2 1-2 1-5 2-3 1-8 8c0 5-2 20-9 21-1 4-5 6-10 5l-2 1-4 1c-4 5-5 13-9 18l-2 1c-6 8-13 24-6 34 6 1 6 7 5 12l2 1 8 11a791 791 0 0 0 29 35c6 3 8 17-2 14-7 8-11 15-14 24-3 10 4 21-2 28M18 34c5-2 6-5 2-7l-3 1c-2 2-2 4 0 6h1zM31 36c3-3 1-4-3-5-2 1-1 3 1 5h2zM28 42l-1-3c-1 0-2 1-1 3h2zM1 48c2-3 6-10 0-11v11zM957 730c1-1 2-2 0-2l-1 2h1z"/><path d="M988 735c4-5 12-5 17-5 2-2 4-2 6-1 9 1 18-9 23-15 3-3 4-8 6-13l6-12-2-8 3-6c0-5-4-9-4-15 1-7 4-8 6-14 1-2 2-4 1-7-1-4-4-2-5-5-4-11 2-20 3-32-3 5-9 0-12-3l-4-8c-2-2-7 0-9-2-5-4-10-25-7-30v-13l-4-5c0-2 3-4 4-6 1-8 7-21-1-27-4 6-6 15-8 21-5-5 3-16-4-20-2 4-5 5-8 3l-5 4c-5 15-13 2-25 1-2 4-3 7-7 9l-2 1-2 1c-1 2-2 2-4 2l-2 1-5 1-3 1-2 1-2 2-2 1c-6 12-3 23-2 35 5 2 3 6-1 8-1 3-3 5-6 3l-3 3 2 2c-3 4-5 8-9 10-4 9-16 19-6 28 2 0 4 0 5 2 6-2 13 2 7 8l2 3c3-1 5 0 8 2 7 4 4 11 9 16l2 1c2 0 3 1 3 2 2 0 3 1 4 3 1-1 2 0 2 1 2 0 3 1 3 3 5 2 11 7 8 12 10 3 10 29 2 27l1 2c5 4-3 8 1 13 4 2 5 7 4 11 5 0 9-1 13 1l3 1 2 1zM1044 601h-1 1zM173 740l-9-3c-4 1-8-1-10-4l-2 1-19-7c-6-3-4-3-7-7-2-2 0-6-7-6-5 2-29-8-21-17h-1c-6 2-14 1-21 1-4 8-20-1-28 0-3 3-8 2-13 2l-5 4c-6 2-15-1-20-4-3-2-3-7-8-5"/></g></svg>
